<svg id="Layer_1" data-name="Layer 1" xmlns="http://www.w3.org/2000/svg" width="7.5in" height="7.5in" viewBox="0 0 540 540">
  <title>Aeternity</title>
  <circle cx="269.78" cy="266.47" r="223.2" style="fill: #f03c6e"/>
  <g>
    <path d="M164.22,185.27a78.7,78.7,0,0,1,43.23,5.33c18.4,7.94,33,22.41,45.45,37.73,13.38,16.31,24.29,34.41,36.38,51.65,9.6,13.54,19.66,27,32.22,37.95,7.06,6.08,15,11.26,23.94,14.22,12.78,4.24,26.9,3.51,39.55-.8A66.25,66.25,0,0,0,421,301c7.7,0,15.41.06,23.11,0A86.77,86.77,0,0,1,404,345.68a88.81,88.81,0,0,1-26.77,9c-13.25,1.81-27.06,1.4-39.75-3.15-14.58-4.92-27.12-14.49-37.77-25.42-28.32-28.94-45.42-66.64-73-96.17-7.33-7.65-15.55-14.67-25.18-19.26A58.59,58.59,0,0,0,165.84,206,65.78,65.78,0,0,0,124,231.25a64.07,64.07,0,0,0-10.84,55.57,65.42,65.42,0,0,0,34.93,41.7c15.75,7.53,34.85,8.91,51,1.83,9.4-4,17.59-10.39,24.85-17.49a194.47,194.47,0,0,0,19.68-23.31c0.36-.47.76-0.91,1.17-1.35,4,6.17,8.23,12.16,12.26,18.3-11.65,15.14-24.86,29.68-41.68,39.13a80.35,80.35,0,0,1-24.49,8.93,86.88,86.88,0,0,1-93.32-49.39A85,85,0,0,1,114.83,210,86.39,86.39,0,0,1,164.22,185.27Z" style="fill: #212121"/>
    <path d="M325.5,193.95a79,79,0,0,1,49.23-8.83,85.3,85.3,0,0,1,27,8.12c22.61,10.95,40.06,32.22,45.86,56.72a82,82,0,0,1,1.71,30.53q-51.12-.08-102.24,0c-0.06-6.92,0-13.85,0-20.77,27,0,54.09,0,81.14,0a64.57,64.57,0,0,0-22.62-39.38c-15.87-13.21-38.29-18.77-58.26-13-9.65,2.91-18.36,8.34-25.92,14.92-10,8.7-18.37,19.07-26.12,29.76-4-6.17-8.31-12.2-12.47-18.3C294.63,218.29,308.17,203.41,325.5,193.95Z" style="fill: #212121"/>
  </g>
</svg>